<?xml version="1.0" encoding="utf-8"?>
<!-- Generator: Adobe Illustrator 28.0.0, SVG Export Plug-In . SVG Version: 6.00 Build 0)  -->
<svg version="1.1" id="Livello_1" xmlns="http://www.w3.org/2000/svg" xmlns:xlink="http://www.w3.org/1999/xlink" x="0px" y="0px"
	 viewBox="0 0 396 119.6" style="enable-background:new 0 0 396 119.6;" xml:space="preserve">
<style type="text/css">
	.st0{fill:#EAB464;}
	.st1{fill:#FFFFFF;}
</style>
<g>
	<g>
		<path class="st0" d="M382.5-195.6H13.5c-7.5,0-13.5,6-13.5,13.5v53.5h396v-53.5C396-189.6,389.9-195.6,382.5-195.6z"/>
	</g>
	<g>
		<path class="st1" d="M49.5-164.2c0,4-0.7,7.7-2.2,10.9c-1.6,3.5-3.8,5.9-6.6,7.3c0.6,0.6,1.5,1.4,2.5,2.4c1.5,1.1,2.8,2,4,2.6
			c-0.6,0.6-1.6,1.5-3,2.7c-0.8,0.6-1.9,1.2-3.3,1.9c-1.2-0.9-2.1-1.9-2.9-2.8c-0.9-1.1-1.5-2.1-1.9-3c0.4-0.3,0.9-1,1.6-2.1
			c-1.6,0.7-3.2,1-4.8,1c-5,0-9.1-2.1-12.2-6.3c-2.9-4-4.4-8.8-4.4-14.6c0-6.2,1.6-11,4.8-14.5c3-3.3,6.9-4.9,11.8-4.9
			c4.8,0,8.7,1.7,11.7,5C47.9-175.2,49.5-170.4,49.5-164.2z M37.7-159.8c0-4.5-1.5-6.8-4.5-6.8c-1.6,0-2.8,0.7-3.6,2
			c-0.7,1.2-1,2.8-1,4.8c0.1,1.9,0.5,3.6,1.2,5.1c0.9,1.8,1.9,2.7,3.2,2.7c1.3,0,2.4-0.9,3.3-2.7C37.3-156.3,37.7-158.1,37.7-159.8z
			"/>
		<path class="st1" d="M84.5-182.1L84-166.3c-0.2,4.5-0.2,11.4-0.2,20.5c-4.2,1.5-8.4,2.3-12.8,2.3c-5.4,0-9.4-1.1-12.2-3.2
			c-2.4-1.8-4-4.6-5-8.5c-0.6-2.2-1.1-6.2-1.6-12.1c-0.5-5.4-0.8-10.4-0.9-14.8H67c-0.1,2.2-0.2,5.7-0.3,10.5c0,2.7,0,6.6,0,11.5
			c0,3.8,0.3,6.3,1,7.7c0.7,1.4,2,2.1,4,2.1c0.6,0,1.2-0.2,1.9-0.5c0-3.4-0.1-8.7-0.3-16c-0.2-3.7-0.5-8.8-0.9-15.3H84.5z"/>
		<path class="st1" d="M116.5-144.5h-13.4l-0.9-3.3c-0.4,0.1-1.3,0.6-2.8,1.5c-1,0.6-2,1.4-3.2,2.5l-1.4-3c-0.3-0.6-0.7-1.4-1.2-2.5
			l-1.3,4.7h-7.1c1-4,2.7-10.7,4.9-20c1.3-6.2,2.5-12.1,3.4-17.7h14.7c0.5,2.6,1.7,8.5,3.7,17.9C113-159.3,114.5-152.8,116.5-144.5z
			 M101-152.5c-0.3-0.9-0.8-2.3-1.5-4.2c-0.4-1.1-1.1-2.6-1.9-4.5c-0.4,0.9-1,2.5-1.8,4.7c-0.4,1.2-1,2.9-1.6,5.1
			c0.5,0,1.6-0.1,3.3-0.3C98.7-151.9,99.8-152.2,101-152.5z"/>
		<path class="st1" d="M147.5-182.1c-0.2,3.3-0.5,9.1-1,17.3c-0.2,6-0.4,13-0.6,20.8c-2.1-1.7-5.4-4.2-9.8-7.5
			c-1.9-1.3-4.7-3.3-8.5-6l-0.2,13h-7.9c-0.1-3.3-0.4-9.6-0.9-18.8c-0.4-7.4-0.8-13.7-1.2-18.9h12.3l9.1,8.6c0-2,0-3.5-0.1-4.7
			c0-1-0.1-2.3-0.3-4H147.5z"/>
		<path class="st1" d="M179.4-182.1l-0.7,15.4c-0.6-0.1-1.7-0.2-3.1-0.4c-0.9,0-2.3-0.1-4.2-0.1c-0.1,1-0.3,3.3-0.5,7
			c-0.2,3.6-0.5,8.8-0.9,15.8h-11.9c-0.1-3.3-0.4-8.5-0.7-15.6c-0.2-2.5-0.3-4.8-0.5-7.2l-3.9,0.1l-3.5,0.4l-0.6-15.4H179.4z"/>
		<path class="st1" d="M206.6-182.1l-1.1,15.5c-0.6-0.1-1.9-0.3-3.9-0.5c-1.4-0.1-2.9-0.2-4.5-0.2l-0.4,4.7c1.8,0,4.7,0,8.8-0.1
			c-0.2,0.6-0.5,1.7-0.9,3.4c-0.2,1-0.4,2.1-0.6,3.5c-0.5-0.1-1.7-0.3-3.6-0.4c-0.9,0-2.2-0.1-3.9,0l-0.2,5.5c1.2,0,3.5-0.1,6.8-0.3
			c0.6,0,1.6-0.2,3.1-0.6c-0.1,0.5-0.4,1.7-0.9,3.7c-0.2,1-0.5,2.3-0.8,3.8h-21.9l-0.7-19.2c-0.1-4.4-0.4-10.5-1-18.4H206.6z"/>
		<path class="st1" d="M246.5-166.7c-0.9-0.3-2-0.4-3.5-0.4c-2.6,0-4.7,0.7-6.4,2.1c-1.8,1.5-2.8,3.7-2.8,6.6c0,2.3,0.7,4.1,2.2,5.5
			c1.5,1.4,3.4,2.2,5.7,2.2c1.6,0,3.2-0.4,4.6-1.2c-0.2,0.7-0.4,1.9-0.8,3.7c-0.2,1.2-0.4,2.4-0.7,3.7c-1.8,0.7-4.2,1.1-7,1.1
			c-5.2,0-9.6-1.7-13.3-5.2c-4-3.8-6-8.7-6-14.8c0-5.6,1.7-10.2,5.1-13.6c3.7-3.7,8.7-5.5,15.2-5.5c3.1,0,5.3,0.2,6.7,0.5
			L246.5-166.7z"/>
		<path class="st1" d="M278.6-144.5h-13.4l-0.9-3.3c-0.4,0.1-1.3,0.6-2.8,1.5c-1,0.6-2,1.4-3.2,2.5l-1.4-3c-0.3-0.6-0.7-1.4-1.2-2.5
			l-1.3,4.7h-7.1c1-4,2.7-10.7,4.9-20c1.3-6.2,2.5-12.1,3.4-17.7h14.7c0.5,2.6,1.7,8.5,3.7,17.9C275-159.3,276.6-152.8,278.6-144.5z
			 M263.1-152.5c-0.3-0.9-0.8-2.3-1.5-4.2c-0.4-1.1-1.1-2.6-1.9-4.5c-0.4,0.9-1,2.5-1.8,4.7c-0.4,1.2-1,2.9-1.6,5.1
			c0.5,0,1.6-0.1,3.3-0.3C260.8-151.9,261.9-152.2,263.1-152.5z"/>
		<path class="st1" d="M309.6-182.1L296.1-152c1.5,0.1,3.8,0,7-0.3c0.7-0.1,1.7-0.3,3-0.7c-0.2,0.7-0.7,2-1.2,3.8
			c-0.3,1-0.8,2.6-1.3,4.7h-22.1l6.6-23c-0.6,0-1.7,0.1-3.4,0.2c-1.2,0.1-2.9,0.3-5,0.6l-0.5-15.4H309.6z"/>
		<path class="st1" d="M341.2-182.1L327.7-152c1.5,0.1,3.8,0,7-0.3c0.7-0.1,1.7-0.3,3-0.7c-0.2,0.7-0.7,2-1.2,3.8
			c-0.3,1-0.8,2.6-1.3,4.7H313l6.6-23c-0.6,0-1.7,0.1-3.4,0.2c-1.2,0.1-2.9,0.3-5,0.6l-0.5-15.4H341.2z"/>
		<path class="st1" d="M375.5-164.1c0,5.8-1.5,10.6-4.5,14.6c-3.1,4.2-7.1,6.2-12,6.2c-5,0-9.1-2.1-12.2-6.3
			c-2.9-4-4.4-8.8-4.4-14.6c0-6.2,1.6-11,4.8-14.5c3-3.3,6.9-4.9,11.8-4.9c4.8,0,8.7,1.7,11.7,5C374-175.1,375.5-170.3,375.5-164.1z
			 M363.8-159.8c0-4.5-1.5-6.8-4.6-6.8c-3,0-4.5,2.3-4.5,6.9c0,1.8,0.4,3.5,1.2,5.1c0.9,1.8,2,2.7,3.3,2.7c1.3,0,2.4-0.9,3.3-2.7
			C363.3-156.3,363.8-158.1,363.8-159.8z"/>
	</g>
	<g>
		<path class="st1" d="M46.6-114.6c-0.2,3.3-0.5,9.1-1,17.3c-0.2,6-0.4,13-0.6,20.8c-2.1-1.7-5.4-4.2-9.8-7.5
			c-1.9-1.3-4.7-3.3-8.5-6l-0.2,13h-7.9c-0.1-3.3-0.4-9.6-0.9-18.8c-0.4-7.4-0.8-13.7-1.2-18.9h12.3l9.1,8.6c0-2,0-3.5-0.1-4.7
			c0-1-0.1-2.3-0.3-4H46.6z"/>
		<path class="st1" d="M74.4-114.6l-1.1,15.5c-0.6-0.1-1.9-0.3-3.9-0.5c-1.4-0.1-2.9-0.2-4.5-0.2l-0.4,4.7c1.8,0,4.7,0,8.8-0.1
			c-0.2,0.6-0.5,1.7-0.9,3.4c-0.2,1-0.4,2.1-0.6,3.5c-0.5-0.1-1.7-0.3-3.6-0.4c-0.9,0-2.2-0.1-3.9,0l-0.2,5.5c1.2,0,3.5-0.1,6.8-0.3
			c0.6,0,1.6-0.2,3.1-0.6c-0.1,0.5-0.4,1.7-0.9,3.7c-0.2,1-0.5,2.3-0.8,3.8H50.3l-0.7-19.2c-0.1-4.4-0.4-10.5-1-18.4H74.4z"/>
		<path class="st1" d="M109.8-99.2c-1.2-0.3-2.1-0.4-2.7-0.4c-0.8,0-1.5,0.3-2.1,0.8c-0.8,0.6-1.2,1.5-1.2,2.5
			c0,0.8,0.7,2.3,2.1,4.5c1.4,2.2,2.1,4.3,2.1,6.2c0,2.7-1,5-3.1,6.7c-2,1.7-4.4,2.5-7.3,2.5c-2.7,0-4.7-0.2-5.9-0.6
			c-0.1-0.8-0.4-2-0.8-3.7c-0.2-0.9-0.5-2.1-1-3.7c1.8,0.4,3,0.7,3.6,0.7c2.4,0,3.7-0.9,3.7-2.8c0-1.3-0.5-2.5-1.5-3.6
			c-1.6-1.4-3.2-2.8-4.8-4.2c-3.1-2.7-4.7-6-4.7-9.8c0-3.9,1.5-6.9,4.4-8.9c2.6-1.8,6-2.6,10.2-2.6c2.4,0,5.1,0.4,8.1,1.1
			L109.8-99.2z"/>
		<path class="st1" d="M141.7-77h-13.4l-0.9-3.3c-0.4,0.1-1.3,0.6-2.8,1.5c-1,0.6-2,1.4-3.2,2.5l-1.4-3c-0.3-0.6-0.7-1.4-1.2-2.5
			l-1.3,4.7h-7.1c1-4,2.7-10.7,4.9-20c1.3-6.2,2.5-12.1,3.4-17.7h14.7c0.5,2.6,1.7,8.5,3.7,17.9C138.2-91.8,139.7-85.2,141.7-77z
			 M126.3-85c-0.3-0.9-0.8-2.3-1.5-4.2c-0.4-1.1-1.1-2.6-1.9-4.5c-0.4,0.9-1,2.5-1.8,4.7c-0.4,1.2-1,2.9-1.6,5.1
			c0.5,0,1.6-0.1,3.3-0.3C123.9-84.4,125-84.6,126.3-85z"/>
		<path class="st1" d="M159.6-114.6l-1,20c-0.2,4.3-0.4,10.2-0.6,17.6h-13.7l-1.7-37.6H159.6z"/>
		<path class="st1" d="M195-99.2c-1.2-0.3-2.1-0.4-2.7-0.4c-0.8,0-1.5,0.3-2.1,0.8c-0.8,0.6-1.2,1.5-1.2,2.5c0,0.8,0.7,2.3,2.1,4.5
			c1.4,2.2,2.1,4.3,2.1,6.2c0,2.7-1,5-3.1,6.7c-2,1.7-4.4,2.5-7.3,2.5c-2.7,0-4.7-0.2-5.9-0.6c-0.1-0.8-0.4-2-0.8-3.7
			c-0.2-0.9-0.5-2.1-1-3.7c1.8,0.4,3,0.7,3.6,0.7c2.4,0,3.7-0.9,3.7-2.8c0-1.3-0.5-2.5-1.5-3.6c-1.6-1.4-3.2-2.8-4.8-4.2
			c-3.1-2.7-4.7-6-4.7-9.8c0-3.9,1.5-6.9,4.4-8.9c2.6-1.8,6-2.6,10.2-2.6c2.4,0,5.1,0.4,8.1,1.1L195-99.2z"/>
		<path class="st1" d="M230.1-114.6l-0.6,15.9c-0.2,4.5-0.2,11.4-0.2,20.5c-4.2,1.5-8.4,2.3-12.8,2.3c-5.4,0-9.4-1.1-12.2-3.2
			c-2.4-1.8-4-4.6-5-8.5c-0.6-2.2-1.1-6.2-1.6-12.1c-0.5-5.4-0.8-10.4-0.9-14.8h15.8c-0.1,2.2-0.2,5.7-0.3,10.5c0,2.7,0,6.6,0,11.5
			c0,3.8,0.3,6.3,1,7.7c0.7,1.4,2,2.1,4,2.1c0.6,0,1.2-0.2,1.9-0.5c0-3.4-0.1-8.7-0.3-16c-0.2-3.7-0.5-8.8-0.9-15.3H230.1z"/>
		<path class="st1" d="M244.1-80.7c0,1.3-0.5,2.4-1.6,3.2c-1.1,0.9-2.4,1.3-3.8,1.3c-1.5,0-2.8-0.4-3.9-1.3c-1.1-0.9-1.7-2-1.7-3.3
			c0-1.3,0.5-2.4,1.6-3.2c1.1-0.8,2.4-1.3,4-1.3c1.5,0,2.8,0.4,3.8,1.3C243.6-83.2,244.1-82.1,244.1-80.7z"/>
		<path class="st1" d="M259.2-80.7c0,1.3-0.5,2.4-1.6,3.2c-1.1,0.9-2.4,1.3-3.8,1.3c-1.5,0-2.8-0.4-3.9-1.3c-1.1-0.9-1.7-2-1.7-3.3
			c0-1.3,0.5-2.4,1.6-3.2c1.1-0.8,2.4-1.3,4-1.3c1.5,0,2.8,0.4,3.8,1.3C258.6-83.2,259.2-82.1,259.2-80.7z"/>
		<path class="st1" d="M274.2-80.7c0,1.3-0.5,2.4-1.6,3.2c-1.1,0.9-2.4,1.3-3.8,1.3c-1.5,0-2.8-0.4-3.9-1.3c-1.1-0.9-1.7-2-1.7-3.3
			c0-1.3,0.5-2.4,1.6-3.2c1.1-0.8,2.4-1.3,4-1.3c1.5,0,2.8,0.4,3.8,1.3C273.7-83.2,274.2-82.1,274.2-80.7z"/>
	</g>
</g>
<g>
	<path class="st1" d="M37.8,66.8c-0.1,0.5-0.3,1.4-0.7,2.7c-0.2,0.8-0.3,1.7-0.4,2.8H20.3c-0.1-2.8-0.2-7.5-0.5-14
		c-0.2-3.3-0.4-7.9-0.9-13.8h12.6l-1,23.1c1.2,0,2.9-0.1,5.3-0.4C36.3,67.1,37,67,37.8,66.8z"/>
	<path class="st1" d="M63,57.8c0,4.3-1.1,7.9-3.3,10.8c-2.3,3.1-5.3,4.6-8.9,4.6c-3.7,0-6.7-1.5-9-4.7c-2.2-2.9-3.2-6.5-3.2-10.8
		c0-4.5,1.2-8.1,3.5-10.7c2.2-2.4,5.1-3.7,8.7-3.7c3.5,0,6.4,1.2,8.6,3.7C61.8,49.7,63,53.3,63,57.8z M54.2,61c0-3.4-1.1-5-3.4-5
		c-2.2,0-3.3,1.7-3.3,5.1c0,1.4,0.3,2.6,0.9,3.8c0.7,1.3,1.5,2,2.4,2c0.9,0,1.7-0.7,2.5-2C53.9,63.5,54.2,62.3,54.2,61z"/>
	<path class="st1" d="M88.5,60.4c-0.1,1-0.3,3-0.5,5.8c-0.1,1.7-0.2,3.7-0.3,6c-1.6,0.5-4,0.7-7.1,0.7c-4.6,0-8.4-1-11.2-3.1
		c-3.4-2.5-5.1-6.2-5.1-11c0-4.7,1.5-8.3,4.5-11c2.8-2.5,6.5-3.7,11.1-3.7c1.7,0,3.6,0.1,5.6,0.4l1,11.4c-0.8-0.3-1.9-0.5-3.4-0.5
		c-1.9,0-3.6,0.6-5.1,1.7c-1.7,1.3-2.5,2.9-2.5,4.9c0,1.9,0.7,3.3,2.2,4.4c1.2,0.9,2.6,1.3,4.2,1.2l-0.3-3.6c-0.1-0.7-0.2-2-0.5-3.7
		H88.5z"/>
	<path class="st1" d="M113.7,57.8c0,4.3-1.1,7.9-3.3,10.8c-2.3,3.1-5.3,4.6-8.9,4.6c-3.7,0-6.7-1.5-9-4.7c-2.2-2.9-3.2-6.5-3.2-10.8
		c0-4.5,1.2-8.1,3.5-10.7c2.2-2.4,5.1-3.7,8.7-3.7c3.5,0,6.4,1.2,8.6,3.7C112.6,49.7,113.7,53.3,113.7,57.8z M105,61
		c0-3.4-1.1-5-3.4-5c-2.2,0-3.3,1.7-3.3,5.1c0,1.4,0.3,2.6,0.9,3.8c0.7,1.3,1.5,2,2.4,2c0.9,0,1.7-0.7,2.5-2
		C104.7,63.5,105,62.3,105,61z"/>
	<path class="st1" d="M146,55.4c0,3.4-1.1,6.2-3.3,8.2c-2.2,2.1-5.1,3.1-8.7,3.1l-0.2,5.5h-10l-0.5-13.5c-0.2-3.5-0.4-8.2-0.7-14.3
		c1.9-0.4,4.6-0.6,8.3-0.6c4.4,0,8,0.9,10.6,2.7C144.5,48.6,146,51.5,146,55.4z M138.5,58.5c0-1.9-1.1-2.8-3.3-2.8
		c-0.3,0-0.5,0-0.8,0.1l-0.2,6.3C137,62,138.5,60.8,138.5,58.5z"/>
	<path class="st1" d="M166,66.8c-0.1,0.5-0.3,1.4-0.7,2.7c-0.2,0.8-0.3,1.7-0.4,2.8h-16.4c-0.1-2.8-0.2-7.5-0.5-14
		c-0.2-3.3-0.4-7.9-0.9-13.8h12.6l-1,23.1c1.2,0,2.9-0.1,5.3-0.4C164.5,67.1,165.1,67,166,66.8z"/>
	<path class="st1" d="M189,72.3h-9.9l-0.7-2.4c-0.3,0.1-1,0.5-2.1,1.1c-0.7,0.5-1.5,1.1-2.4,1.8l-1-2.2c-0.2-0.4-0.5-1-0.9-1.8
		l-1,3.5h-5.2c0.8-3,2-7.9,3.6-14.8c1-4.6,1.8-8.9,2.5-13h10.9c0.3,1.9,1.3,6.3,2.8,13.2C186.3,61.3,187.5,66.2,189,72.3z
		 M177.5,66.3c-0.2-0.6-0.6-1.7-1.1-3.1c-0.3-0.8-0.8-1.9-1.4-3.3c-0.3,0.7-0.7,1.8-1.3,3.4c-0.3,0.9-0.7,2.2-1.2,3.7
		c0.4,0,1.2-0.1,2.5-0.2C175.8,66.8,176.6,66.6,177.5,66.3z"/>
	<path class="st1" d="M210.1,55.9c-0.7-0.2-1.5-0.3-2.6-0.3c-1.9,0-3.5,0.5-4.7,1.5c-1.4,1.1-2,2.8-2,4.9c0,1.7,0.5,3,1.6,4.1
		c1.1,1.1,2.5,1.6,4.2,1.6c1.2,0,2.3-0.3,3.4-0.9c-0.1,0.5-0.3,1.4-0.6,2.7c-0.2,0.9-0.3,1.8-0.5,2.8c-1.4,0.5-3.1,0.8-5.2,0.8
		c-3.8,0-7.1-1.3-9.8-3.9c-2.9-2.8-4.4-6.4-4.4-10.9c0-4.2,1.3-7.5,3.8-10.1c2.7-2.7,6.4-4.1,11.2-4.1c2.3,0,4,0.1,5,0.4L210.1,55.9
		z"/>
	<path class="st1" d="M230.7,44.5l-0.8,11.5c-0.4-0.1-1.4-0.2-2.9-0.4c-1-0.1-2.1-0.2-3.3-0.2l-0.3,3.5c1.3,0,3.5,0,6.5-0.1
		c-0.1,0.4-0.3,1.3-0.6,2.5c-0.2,0.7-0.3,1.6-0.5,2.6c-0.4-0.1-1.2-0.2-2.6-0.3c-0.7,0-1.6,0-2.9,0l-0.2,4c0.9,0,2.6-0.1,5-0.2
		c0.5,0,1.2-0.2,2.3-0.4c-0.1,0.4-0.3,1.3-0.7,2.7c-0.2,0.7-0.4,1.7-0.6,2.8h-16.2l-0.5-14.2c-0.1-3.2-0.3-7.8-0.7-13.6H230.7z"/>
	<path class="st1" d="M259.6,44.5c-0.2,3-0.5,7.8-0.8,14.5c-0.1,3.2-0.3,7.6-0.5,13.3H249l-0.2-6.1c-0.2,0.1-0.7,0.2-1.3,0.5
		c-0.8,0.3-1.3,0.6-1.7,0.8l-0.9-2.2c-0.2-0.5-0.5-1.2-1-2l-0.2,9h-10.2L233.1,59c-0.1-3.5-0.4-8.3-0.8-14.5h12.7l-0.9,17.1
		c0.9,0.1,1.7,0.1,2.5,0.1c0.5,0,1.2-0.1,2.1-0.1l-0.9-17H259.6z"/>
	<path class="st1" d="M285.3,57.8c0,4.3-1.1,7.9-3.3,10.8c-2.3,3.1-5.3,4.6-8.9,4.6c-3.7,0-6.7-1.5-9-4.7C262,65.6,261,62,261,57.8
		c0-4.5,1.2-8.1,3.5-10.7c2.2-2.4,5.1-3.7,8.7-3.7c3.5,0,6.4,1.2,8.6,3.7C284.2,49.7,285.3,53.3,285.3,57.8z M276.6,61
		c0-3.4-1.1-5-3.4-5c-2.2,0-3.3,1.7-3.3,5.1c0,1.4,0.3,2.6,0.9,3.8c0.7,1.3,1.5,2,2.4,2c0.9,0,1.7-0.7,2.5-2
		C276.3,63.5,276.6,62.3,276.6,61z"/>
	<path class="st1" d="M305.5,66.8c-0.1,0.5-0.3,1.4-0.7,2.7c-0.2,0.8-0.3,1.7-0.4,2.8H288c-0.1-2.8-0.2-7.5-0.5-14
		c-0.2-3.3-0.4-7.9-0.9-13.8h12.6l-1,23.1c1.2,0,2.9-0.1,5.3-0.4C304,67.1,304.7,67,305.5,66.8z"/>
	<path class="st1" d="M331.1,58.6c0,4.4-1.4,7.8-4.1,10.3c-2.8,2.6-6.7,3.9-11.8,3.9c-3.3,0-5.8-0.2-7.5-0.5l-0.5-13.4
		c-0.2-3.5-0.4-8.2-0.9-14.3c2.6-0.4,5.4-0.6,8.2-0.6c5.1,0,9.1,1.2,11.9,3.5C329.6,50.1,331.1,53.8,331.1,58.6z M323.7,60.8
		c0-1.8-0.6-3.1-1.7-3.9c-1-0.7-2.2-1-3.7-1L318,67.3c1.5-0.1,2.8-0.6,3.8-1.5C323,64.7,323.7,63,323.7,60.8z"/>
	<path class="st1" d="M351.5,44.5l-0.8,11.5c-0.4-0.1-1.4-0.2-2.9-0.4c-1-0.1-2.1-0.2-3.3-0.2l-0.3,3.5c1.3,0,3.5,0,6.5-0.1
		c-0.1,0.4-0.3,1.3-0.6,2.5c-0.2,0.7-0.3,1.6-0.5,2.6c-0.3-0.1-1.2-0.2-2.6-0.3c-0.7,0-1.6,0-2.9,0l-0.2,4c0.9,0,2.6-0.1,5-0.2
		c0.5,0,1.2-0.2,2.3-0.4c-0.1,0.4-0.3,1.3-0.7,2.7c-0.2,0.7-0.4,1.7-0.6,2.8h-16.2l-0.5-14.2c-0.1-3.2-0.3-7.8-0.7-13.6H351.5z"/>
	<path class="st1" d="M377.3,54.9c0,2.2-0.6,4.2-1.9,5.9c-1.1,1.5-2.5,2.6-4.1,3.2c0.4,0.5,1.2,1.7,2.6,3.4c0.7,0.8,1.7,1.8,3.1,3.1
		c-0.6,0.2-1.8,0.7-3.7,1.6c-1.4,0.6-2.6,1.2-3.8,1.8c-0.4-0.4-1.1-1.6-2.3-3.4c-0.6-0.9-1.4-2.5-2.4-4.6h0l-0.2,6.3h-10.2
		c-0.1-2.6-0.3-7-0.6-13c-0.1-3.6-0.4-8.5-0.7-14.8c3.3-0.3,6.3-0.5,9.1-0.5C372.3,43.9,377.3,47.6,377.3,54.9z M369.1,58.8
		c0-1.1-0.5-2-1.4-2.5c-0.7-0.4-1.6-0.5-2.7-0.5l-0.1,6.2c1,0,1.9-0.2,2.7-0.7C368.6,60.8,369.1,59.9,369.1,58.8z"/>
</g>
</svg>
